<svg xmlns="http://www.w3.org/2000/svg" xmlns:xlink="http://www.w3.org/1999/xlink" width="500" zoomAndPan="magnify" viewBox="0 0 375 374.999991" height="500" preserveAspectRatio="xMidYMid meet" version="1.0"><defs><g/><clipPath id="9ce54255e4"><path d="M 48 47.976562 L 327 47.976562 L 327 327.023438 L 48 327.023438 Z M 48 47.976562 " clip-rule="nonzero"/></clipPath><clipPath id="b797f6121e"><path d="M 322.726562 187.5 C 322.726562 172.941406 329.980469 157.488281 325.515625 144.378906 C 320.941406 130.765625 305.433594 122.398438 296.898438 111.074219 C 288.25 99.636719 284.679688 82.957031 272.796875 74.644531 C 261.027344 66.441406 243.453125 68.285156 229.339844 63.820312 C 215.671875 59.582031 202.675781 47.976562 187.554688 47.976562 C 172.4375 47.976562 159.382812 59.527344 145.773438 63.820312 C 131.65625 68.226562 114.027344 66.386719 102.257812 74.644531 C 90.375 82.957031 86.804688 99.636719 78.160156 111.074219 C 69.566406 122.398438 54.113281 130.765625 49.484375 144.378906 C 45.078125 157.488281 52.273438 172.941406 52.273438 187.5 C 52.273438 202.058594 45.019531 217.511719 49.484375 230.621094 C 54.058594 244.234375 69.566406 252.601562 78.101562 263.925781 C 86.75 275.363281 90.320312 292.042969 102.203125 300.355469 C 113.972656 308.613281 131.546875 306.773438 145.714844 311.179688 C 159.382812 315.417969 172.382812 327.023438 187.5 327.023438 C 202.617188 327.023438 215.671875 315.472656 229.285156 311.179688 C 243.398438 306.773438 261.027344 308.613281 272.796875 300.355469 C 284.679688 292.042969 288.25 275.363281 296.898438 263.925781 C 305.488281 252.601562 320.941406 244.234375 325.515625 230.621094 C 329.980469 217.457031 322.726562 202.003906 322.726562 187.5 Z M 322.726562 187.5 " clip-rule="nonzero"/></clipPath><clipPath id="287e1a4c9d"><path d="M 0 0.976562 L 279 0.976562 L 279 280.023438 L 0 280.023438 Z M 0 0.976562 " clip-rule="nonzero"/></clipPath><clipPath id="4a3140a5ad"><path d="M 274.726562 140.5 C 274.726562 125.941406 281.980469 110.488281 277.515625 97.378906 C 272.941406 83.765625 257.433594 75.398438 248.898438 64.074219 C 240.25 52.636719 236.679688 35.957031 224.796875 27.644531 C 213.027344 19.441406 195.453125 21.285156 181.339844 16.820312 C 167.671875 12.582031 154.675781 0.976562 139.554688 0.976562 C 124.4375 0.976562 111.382812 12.527344 97.773438 16.820312 C 83.65625 21.226562 66.027344 19.386719 54.257812 27.644531 C 42.375 35.957031 38.804688 52.636719 30.160156 64.074219 C 21.566406 75.398438 6.113281 83.765625 1.484375 97.378906 C -2.921875 110.488281 4.273438 125.941406 4.273438 140.5 C 4.273438 155.058594 -2.980469 170.511719 1.484375 183.621094 C 6.058594 197.234375 21.566406 205.601562 30.101562 216.925781 C 38.75 228.363281 42.320312 245.042969 54.203125 253.355469 C 65.972656 261.613281 83.546875 259.773438 97.714844 264.179688 C 111.382812 268.417969 124.382812 280.023438 139.5 280.023438 C 154.617188 280.023438 167.671875 268.472656 181.285156 264.179688 C 195.398438 259.773438 213.027344 261.613281 224.796875 253.355469 C 236.679688 245.042969 240.25 228.363281 248.898438 216.925781 C 257.488281 205.601562 272.941406 197.234375 277.515625 183.621094 C 281.980469 170.457031 274.726562 155.003906 274.726562 140.5 Z M 274.726562 140.5 " clip-rule="nonzero"/></clipPath><clipPath id="2828fdba5e"><rect x="0" width="279" y="0" height="281"/></clipPath><clipPath id="fbcc04a42a"><path d="M 132.667969 110.820312 L 158.917969 110.820312 L 158.917969 137.070312 L 132.667969 137.070312 Z M 132.667969 110.820312 " clip-rule="nonzero"/></clipPath><clipPath id="5a00354c7c"><path d="M 220.089844 168.417969 L 246.339844 168.417969 L 246.339844 194.667969 L 220.089844 194.667969 Z M 220.089844 168.417969 " clip-rule="nonzero"/></clipPath></defs><g clip-path="url(#9ce54255e4)"><g clip-path="url(#b797f6121e)"><g transform="matrix(1, 0, 0, 1, 48, 47)"><g clip-path="url(#2828fdba5e)"><g clip-path="url(#287e1a4c9d)"><g clip-path="url(#4a3140a5ad)"><path fill="#c6e8e5" d="M -2.980469 0.976562 L 282.191406 0.976562 L 282.191406 280.023438 L -2.980469 280.023438 Z M -2.980469 0.976562 " fill-opacity="1" fill-rule="nonzero"/></g></g></g></g></g></g><g fill="#2d2e2a" fill-opacity="1"><g transform="translate(117.683714, 267.232114)"><g><path d="M 142.8125 -124.4375 C 141.832031 -118.394531 138.726562 -113.414062 133.5 -109.5 C 132.6875 -106.882812 131.539062 -104.597656 130.0625 -102.640625 C 133.988281 -99.203125 136.6875 -95.195312 138.15625 -90.625 C 139.945312 -83.113281 138.394531 -76.09375 133.5 -69.5625 C 132.03125 -67.601562 130.476562 -66.050781 128.84375 -64.90625 C 127.863281 -61.96875 126.554688 -59.519531 124.921875 -57.5625 C 120.515625 -51.6875 115.046875 -48.75 108.515625 -48.75 C 108.023438 -48.75 107.535156 -48.785156 107.046875 -48.859375 C 106.554688 -48.941406 106.144531 -48.984375 105.8125 -48.984375 C 92.914062 -50.617188 80.179688 -51.601562 67.609375 -51.9375 C 67.929688 -49.15625 68.175781 -46.332031 68.34375 -43.46875 C 68.507812 -40.613281 68.671875 -37.800781 68.828125 -35.03125 L 68.828125 -33.0625 C 68.992188 -29.476562 68.953125 -25.4375 68.703125 -20.9375 C 68.460938 -16.445312 67.566406 -12.078125 66.015625 -7.828125 C 64.460938 -3.585938 61.726562 0 57.8125 2.9375 C 56.664062 6.039062 55.03125 8.859375 52.90625 11.390625 C 50.78125 13.921875 47.84375 16.082031 44.09375 17.875 C 41.800781 19.019531 39.109375 19.59375 36.015625 19.59375 C 31.929688 19.59375 28.414062 18.445312 25.46875 16.15625 C 22.53125 13.875 20.570312 10.859375 19.59375 7.109375 C 16.976562 -2.523438 15.382812 -12.523438 14.8125 -22.890625 C 14.25 -33.265625 13.394531 -43.4375 12.25 -53.40625 L 9.546875 -54.875 C 4.328125 -58.300781 0.984375 -62.910156 -0.484375 -68.703125 C -1.953125 -74.503906 -1.140625 -79.9375 1.953125 -85 C 2.609375 -86.144531 3.34375 -87.164062 4.15625 -88.0625 C 4.976562 -88.957031 5.796875 -89.8125 6.609375 -90.625 C 5.796875 -95.6875 4.859375 -100.378906 3.796875 -104.703125 C 2.734375 -109.035156 1.550781 -113.164062 0.25 -117.09375 C -0.238281 -119.375 -0.484375 -121.660156 -0.484375 -123.953125 C -4.734375 -130.148438 -5.960938 -137.25 -4.171875 -145.25 C -3.179688 -150.15625 -0.398438 -153.832031 4.171875 -156.28125 C 4.171875 -156.601562 4.207031 -156.804688 4.28125 -156.890625 C 4.363281 -156.972656 4.40625 -157.097656 4.40625 -157.265625 C 5.226562 -161.179688 7.269531 -164.40625 10.53125 -166.9375 C 13.800781 -169.46875 17.554688 -170.734375 21.796875 -170.734375 C 25.390625 -170.734375 28.492188 -169.753906 31.109375 -167.796875 C 35.191406 -166.648438 39.234375 -165.585938 43.234375 -164.609375 C 47.234375 -163.628906 51.191406 -162.726562 55.109375 -161.90625 C 55.597656 -162.070312 56.046875 -162.195312 56.453125 -162.28125 C 56.867188 -162.363281 57.320312 -162.40625 57.8125 -162.40625 C 58.132812 -162.40625 58.457031 -162.363281 58.78125 -162.28125 C 59.113281 -162.195312 59.363281 -162.15625 59.53125 -162.15625 C 65.238281 -161.007812 70.988281 -160.03125 76.78125 -159.21875 C 82.582031 -158.40625 88.257812 -157.671875 93.8125 -157.015625 C 96.257812 -156.847656 98.664062 -156.679688 101.03125 -156.515625 C 103.40625 -156.359375 105.738281 -156.195312 108.03125 -156.03125 L 111.453125 -155.796875 C 112.109375 -155.628906 112.800781 -155.546875 113.53125 -155.546875 C 114.269531 -155.546875 114.96875 -155.546875 115.625 -155.546875 C 117.582031 -155.546875 119.660156 -155.460938 121.859375 -155.296875 C 124.066406 -155.140625 126.234375 -154.734375 128.359375 -154.078125 C 128.847656 -153.910156 129.582031 -153.5 130.5625 -152.84375 C 135.625 -150.238281 139.378906 -146.238281 141.828125 -140.84375 C 144.273438 -135.457031 144.601562 -129.988281 142.8125 -124.4375 Z M 120.03125 -112.921875 C 123.78125 -113.085938 127.125 -114.394531 130.0625 -116.84375 C 133.007812 -119.289062 134.726562 -122.472656 135.21875 -126.390625 C 136.519531 -130.148438 136.269531 -134.03125 134.46875 -138.03125 C 132.675781 -142.03125 129.90625 -144.847656 126.15625 -146.484375 L 125.90625 -146.734375 C 123.625 -147.546875 121.175781 -147.910156 118.5625 -147.828125 C 115.945312 -147.742188 113.414062 -147.785156 110.96875 -147.953125 C 108.019531 -148.273438 105.035156 -148.519531 102.015625 -148.6875 C 98.992188 -148.851562 96.015625 -149.097656 93.078125 -149.421875 C 81.648438 -150.566406 69.972656 -152.28125 58.046875 -154.5625 C 57.398438 -154.726562 56.832031 -154.398438 56.34375 -153.578125 C 51.601562 -154.722656 46.820312 -155.867188 42 -157.015625 C 37.1875 -158.160156 32.414062 -159.382812 27.6875 -160.6875 C 25.070312 -162.976562 21.96875 -163.550781 18.375 -162.40625 C 14.78125 -161.257812 12.65625 -159.054688 12 -155.796875 C 11.1875 -152.035156 11.1875 -148.6875 12 -145.75 C 12.820312 -142.8125 14.289062 -140.195312 16.40625 -137.90625 C 15.59375 -135.78125 15.59375 -133.578125 16.40625 -131.296875 C 18.039062 -126.066406 19.429688 -120.757812 20.578125 -115.375 C 21.722656 -109.988281 22.785156 -104.519531 23.765625 -98.96875 C 20.816406 -97.65625 18.609375 -95.691406 17.140625 -93.078125 C 15.023438 -89.484375 14.535156 -85.847656 15.671875 -82.171875 C 16.816406 -78.503906 19.023438 -75.523438 22.296875 -73.234375 C 24.085938 -72.097656 25.960938 -71.285156 27.921875 -70.796875 C 28.410156 -66.710938 28.898438 -62.546875 29.390625 -58.296875 C 29.878906 -54.054688 30.289062 -49.8125 30.625 -45.5625 C 30.945312 -43.269531 31.269531 -40.941406 31.59375 -38.578125 C 31.925781 -36.210938 32.171875 -33.804688 32.328125 -31.359375 C 32.492188 -30.210938 32.65625 -28.820312 32.8125 -27.1875 C 32.976562 -25.550781 33.304688 -24 33.796875 -22.53125 C 33.472656 -17.144531 34.046875 -11.921875 35.515625 -6.859375 C 36.335938 -3.753906 38.21875 -1.753906 41.15625 -0.859375 C 44.09375 0.0351562 46.867188 -0.0820312 49.484375 -1.21875 C 53.890625 -3.1875 56.867188 -6.046875 58.421875 -9.796875 C 59.972656 -13.554688 60.828125 -17.679688 60.984375 -22.171875 C 61.148438 -26.660156 61.15625 -30.863281 61 -34.78125 C 60.832031 -40.988281 60.335938 -47.113281 59.515625 -53.15625 C 58.703125 -59.195312 57.804688 -65.238281 56.828125 -71.28125 C 58.953125 -71.445312 61.035156 -71.53125 63.078125 -71.53125 C 65.117188 -71.53125 67.203125 -71.53125 69.328125 -71.53125 C 84.835938 -71.851562 100.1875 -70.875 115.375 -68.59375 C 118.96875 -68.257812 122.03125 -69.15625 124.5625 -71.28125 C 127.09375 -73.40625 128.925781 -76.097656 130.0625 -79.359375 C 131.207031 -82.628906 131.375 -85.734375 130.5625 -88.671875 C 129.582031 -92.265625 127.5 -95.125 124.3125 -97.25 C 121.125 -99.375 117.734375 -100.4375 114.140625 -100.4375 C 107.117188 -101.25 100.140625 -101.773438 93.203125 -102.015625 C 86.265625 -102.265625 79.285156 -102.304688 72.265625 -102.140625 C 68.671875 -101.984375 65.078125 -101.820312 61.484375 -101.65625 C 57.890625 -101.488281 54.210938 -101.242188 50.453125 -100.921875 L 50.21875 -100.921875 C 50.050781 -101.898438 49.554688 -103.941406 48.734375 -107.046875 C 47.921875 -110.148438 47.066406 -113.414062 46.171875 -116.84375 C 45.273438 -120.269531 44.664062 -122.800781 44.34375 -124.4375 C 46.789062 -123.78125 49.15625 -123.207031 51.4375 -122.71875 C 53.726562 -122.226562 55.851562 -121.820312 57.8125 -121.5 C 63.03125 -120.519531 68.332031 -119.703125 73.71875 -119.046875 C 79.113281 -118.390625 84.425781 -117.816406 89.65625 -117.328125 L 105.078125 -115.859375 C 106.222656 -115.859375 107.125 -115.78125 107.78125 -115.625 L 108.515625 -115.625 C 110.304688 -114.632812 112.140625 -113.894531 114.015625 -113.40625 C 115.898438 -112.914062 117.90625 -112.753906 120.03125 -112.921875 Z M 31.59375 -153.578125 C 31.269531 -154.234375 30.820312 -155.007812 30.25 -155.90625 C 29.675781 -156.8125 29.144531 -157.507812 28.65625 -158 C 33.226562 -156.363281 38.453125 -154.972656 44.328125 -153.828125 C 50.210938 -152.679688 55.441406 -151.457031 60.015625 -150.15625 L 56.09375 -150.15625 C 55.4375 -150.320312 53.472656 -150.523438 50.203125 -150.765625 C 46.941406 -151.015625 43.515625 -151.34375 39.921875 -151.75 C 36.328125 -152.15625 33.550781 -152.765625 31.59375 -153.578125 Z M 31.59375 -153.578125 "/></g></g></g><g clip-path="url(#fbcc04a42a)"><path fill="#2d2e2a" d="M 159.101562 124.035156 C 149.191406 125.863281 147.710938 127.339844 145.886719 137.253906 C 144.058594 127.339844 142.582031 125.863281 132.667969 124.035156 C 142.582031 122.210938 144.058594 120.730469 145.886719 110.820312 C 147.710938 120.730469 149.191406 122.210938 159.101562 124.035156 Z M 159.101562 124.035156 " fill-opacity="1" fill-rule="nonzero"/></g><g clip-path="url(#5a00354c7c)"><path fill="#2d2e2a" d="M 246.523438 181.636719 C 236.613281 183.460938 235.132812 184.941406 233.308594 194.855469 C 231.480469 184.941406 230.003906 183.460938 220.089844 181.636719 C 230.003906 179.8125 231.480469 178.332031 233.308594 168.417969 C 235.132812 178.332031 236.613281 179.8125 246.523438 181.636719 Z M 246.523438 181.636719 " fill-opacity="1" fill-rule="nonzero"/></g></svg>